<?xml version="1.0" encoding="UTF-8"?>
<svg xmlns="http://www.w3.org/2000/svg" xmlns:xlink="http://www.w3.org/1999/xlink" viewBox="0 0 269.13 389.1">
  <defs>
    <style>
      .cls-1 {
        fill: url(#linear-gradient-2);
      }

      .cls-2, .cls-3, .cls-4, .cls-5, .cls-6, .cls-7, .cls-8, .cls-9, .cls-10 {
        mix-blend-mode: multiply;
      }

      .cls-2, .cls-5 {
        opacity: .4;
      }

      .cls-2, .cls-6 {
        fill: #0c877e;
      }

      .cls-11 {
        fill: url(#linear-gradient-6);
      }

      .cls-3, .cls-4, .cls-7 {
        opacity: .3;
      }

      .cls-3, .cls-12 {
        fill: none;
      }

      .cls-4, .cls-5, .cls-13 {
        fill: #3f038c;
      }

      .cls-6, .cls-10 {
        opacity: .1;
      }

      .cls-7, .cls-8, .cls-14, .cls-10 {
        fill: #042daf;
      }

      .cls-12 {
        isolation: isolate;
      }

      .cls-8, .cls-9 {
        opacity: .2;
      }

      .cls-9 {
        fill: #f94c00;
      }

      .cls-15 {
        fill: url(#linear-gradient-5);
      }

      .cls-16 {
        fill: url(#linear-gradient-3);
      }

      .cls-17 {
        fill: url(#linear-gradient);
      }

      .cls-18 {
        fill: url(#linear-gradient-4);
      }
    </style>
    <linearGradient id="linear-gradient" x1="64.04" y1="258.22" x2="205.96" y2="322.93" gradientUnits="userSpaceOnUse">
      <stop offset="0" stop-color="#283e99"/>
      <stop offset="1" stop-color="#009ed4"/>
    </linearGradient>
    <linearGradient id="linear-gradient-2" x1="71.72" y1="173.54" x2="247.24" y2="231" xlink:href="#linear-gradient"/>
    <linearGradient id="linear-gradient-3" x1="-24.01" y1="651.8" x2="125.55" y2="260.42" xlink:href="#linear-gradient"/>
    <linearGradient id="linear-gradient-4" x1="-40.08" y1="323.9" x2="202.23" y2="78.73" gradientUnits="userSpaceOnUse">
      <stop offset="0" stop-color="#00579f"/>
      <stop offset=".46" stop-color="#17baaf"/>
      <stop offset="1" stop-color="#ff0"/>
    </linearGradient>
    <linearGradient id="linear-gradient-5" x1="167.39" y1="56.83" x2="232.9" y2="-7.83" xlink:href="#linear-gradient-4"/>
    <linearGradient id="linear-gradient-6" x1="173.48" y1="103.38" x2="154.38" y2="29.63" gradientUnits="userSpaceOnUse">
      <stop offset="0" stop-color="#ea0e63"/>
      <stop offset="1" stop-color="#ff0"/>
    </linearGradient>
  </defs>
  <g class="cls-12">
    <g id="artwork">
      <g>
        <path class="cls-17" d="m95.58,324.34s-36.54-23.4,25.03,8.82c61.56,32.21,114.36-29.42,94.6-73.72,0,0,7.87,55.28-53.12,44.82-39.67-6.81-40.18-55.75-25.98-72.77l-38.4-1.74-31.81,69.56,14,33.84,15.7-8.82Z"/>
        <g class="cls-3">
          <path class="cls-13" d="m103.2,230c0,.09,0,.18,0,.28l.57-.25-.57-.03Z"/>
          <path class="cls-14" d="m215.2,259.43c13.8,82.68-117.16,93.45-112.84,3.02.68-14.25.92-24.69.84-32.18l-7.2,3.19-30.12,65.84,14,33.84,15.7-8.82s-36.54-23.39,25.03,8.82c61.56,32.21,114.36-29.42,94.6-73.72Z"/>
        </g>
        <path class="cls-5" d="m95.58,324.34s-24.33-15.58.2-3.79c-.48-33.33,18.66-68.9,34.62-78.37,1.43-4.2,3.36-7.88,5.7-10.69l-38.4-1.74-31.81,69.56,14,33.84,15.7-8.82Z"/>
        <path class="cls-1" d="m150.69,29.02c-18.52,7.8-19.39,29.85-16.76,36.5,14.78-18.25,56.14-21.01,57.27,0l-5.56,52.92-62.8,32.29s-1.01.97-2.75,2.63c-51.91,13.09-90.33,60.09-90.33,116.06,0,66.1,53.59,119.69,119.69,119.69s119.69-53.59,119.69-119.69c0,0-13.24,81.41-87.46,82.2-67.79.72-95.23-62.64-70.14-99.73,27.34-40.41,108.77-28.56,140.73-103.49,31.96-74.94-22.1-119.37-22.1-119.37l-60.61-9.11-18.86,9.11Z"/>
        <path class="cls-7" d="m269.13,269.41c0,66.1-53.59,119.69-119.69,119.69-41.05,0-77.27-20.68-98.83-52.18l15.32-36.79c3.99,5.04,11.14,13.65,23.11,27.87,56.45,67.1,165.28,50.92,180.08-58.59Z"/>
        <path class="cls-4" d="m102.39,283.4c-.14-11.21,2.84-22.2,9.15-31.52,8.21-12.14,21.32-19.55,36.48-26.03,9.85-15.42,4.74-30.34,4.74-30.34,0,0-83.49-2.36-119.86,46.63-2.04,8.76-3.14,17.88-3.14,27.26,0,65.62,52.82,118.88,118.26,119.65l30.57-3.55c-85.81-.89-91.43-59.49-76.2-102.1Z"/>
        <path class="cls-16" d="m122.4,240.24l.04.02c33.82-27.21,101.39-25.2,129.83-91.88,31.96-74.94-22.1-119.37-22.1-119.37l-60.61-9.11-18.86,9.11c-18.52,7.8-19.39,29.85-16.76,36.5,14.78-18.25,56.14-21.01,57.27,0l-5.56,52.92-62.8,32.29s-1.01.97-2.75,2.63c-51.91,13.09-90.33,60.09-90.33,116.06,0,66.1,53.59,119.69,119.69,119.69,10.05,0,19.81-1.26,29.14-3.59-106.65,10.79-110.94-103.71-56.18-145.26Z"/>
        <path class="cls-10" d="m178.58,164.91l-107.86,14.38c-1.9,1.67-3.77,3.37-5.57,5.15-4.34,5.79-12.31,16.44-21.32,28.66-8.97,16.79-14.07,35.95-14.07,56.31,0,66.1,53.59,119.69,119.69,119.69,10.05,0,19.81-1.26,29.14-3.59-106.65,10.79-110.94-103.71-56.18-145.26l.04.02c33.82-27.21,101.39-25.2,129.83-91.88,18.04-42.29,8.67-74.86-2.91-95.22-10.73-14.57-19.2-24.15-19.2-24.15,0,0,36,73.52-51.58,135.89Z"/>
        <path class="cls-8" d="m122.4,240.24l.04.02c33.82-27.21,101.39-25.2,129.83-91.88,4.75-11.14,7.56-21.59,8.97-31.33-27.17,60.54-115.18,63.66-115.18,63.66l-67.16,20.75-41.32,25.35c-5.04,13.24-7.83,27.59-7.83,42.6,0,66.1,53.59,119.69,119.69,119.69,10.05,0,19.81-1.26,29.14-3.59-106.65,10.79-110.94-103.71-56.18-145.26Z"/>
        <path class="cls-7" d="m178.58,385.51c-3.25.33-6.4.54-9.45.64,0,0-.02,0-.03,0-129.59,9.31-152.1-137.51-42.47-203.11l-72.76,14.34c-15.13,20.04-24.12,44.98-24.12,72.02,0,66.1,53.59,119.69,119.69,119.69,10.05,0,19.81-1.26,29.14-3.59Z"/>
        <path class="cls-7" d="m180.57,39.46c-29.58-5.25-30.34,2.04-25.66,13.34,16.77-4.75,35.53-1.35,36.29,12.71l-5.39,51.27,36.39,9s17.95-75.75-41.63-86.32Z"/>
        <path class="cls-4" d="m185.64,118.43l-62.8,32.29s-1.01.97-2.75,2.63c-51.91,13.09-90.33,60.09-90.33,116.06,0,5.61.42,11.13,1.16,16.53,15.54-61.89,145.97-36.62,186.78-146.38,11.46-30.83-32.07-21.13-32.07-21.13Z"/>
        <path class="cls-4" d="m240.15,39.61c-5.57-6.94-9.99-10.59-9.99-10.59l-60.61-9.11-13.08,6.31c3.84.7,3.22.74,8.23,1.39,24.68,3.17,45.17,14.88,75.45,12Z"/>
        <path class="cls-18" d="m191.2,65.52c0,42.81-216.08,36.42-188.82,216.29,0,0,20.9-39.32,102.97-59.47,128.43-31.53,143.01-138.1,85.84-156.82Z"/>
        <path class="cls-15" d="m150.69,29.02C165.39-14.32,236,11.22,265.02,0c-15.09,57.84-85.12,21.09-114.34,29.02Z"/>
        <path class="cls-2" d="m265.02,0c-19.88,31.85-83.45,0-114.34,29.02,29.21-7.93,99.25,28.83,114.34-29.02Z"/>
        <path class="cls-2" d="m191.2,65.52c18.84,16.41,9.29,50.77-25.33,69.89C96.01,173.98-1.08,207.71,2.38,281.81c0,0,20.9-39.32,102.97-59.47,128.43-31.53,143.01-138.1,85.84-156.82Z"/>
        <path class="cls-6" d="m221.53,98.84c6.78,68.48-128.3,119.96-176.62,51.21C13.75,177.49-7.31,217.87,2.38,281.81c0,0,20.9-39.32,102.97-59.47,92.08-22.61,125.63-83.78,116.18-123.51Z"/>
        <path class="cls-11" d="m133.93,65.52c14.78-18.25,56.14-21.01,57.27,0,.68-11.6.13-30.39-40.51-36.5-18.52,7.8-19.39,29.85-16.76,36.5Z"/>
        <path class="cls-9" d="m133.93,65.52c14.78-18.25,56.14-21.01,57.27,0,.44-7.47.35-17.92-10.63-26.05-18.61-1.2-42.77,5.44-46.64,26.05Z"/>
      </g>
    </g>
  </g>
</svg>